<?xml version="1.0" standalone="no"?><!DOCTYPE svg PUBLIC "-//W3C//DTD SVG 1.1//EN" "http://www.w3.org/Graphics/SVG/1.1/DTD/svg11.dtd"><svg t="1610616937771" class="icon" viewBox="0 0 1072 1024" version="1.1" xmlns="http://www.w3.org/2000/svg" p-id="998" xmlns:xlink="http://www.w3.org/1999/xlink" width="209.375" height="200"><defs><style type="text/css"></style></defs><path d="M18.285714 17.700571V816.030476h871.66781c77.458286 0 140.726857-63.21981 140.726857-140.653714V158.329905c0-77.433905-63.268571-140.629333-140.726857-140.629334H18.285714z m60.952381 737.353143V78.628571h810.715429a80.067048 80.067048 0 0 1 79.774476 79.701334V675.352381a80.067048 80.067048 0 0 1-79.774476 79.701333L79.238095 755.053714z" fill="#5AC2EE" p-id="999"></path><path d="M805.229714 465.432381l56.953905 21.77219c-42.300952 110.713905-166.083048 186.09981-306.468571 186.09981-34.206476 0-67.705905-4.437333-99.620572-13.068191l-11.897905-3.413333 17.871239-58.270476c29.622857 9.069714 61.19619 13.799619 93.671619 13.799619 113.737143 0 212.260571-58.465524 247.222857-141.238857l2.267428-5.656381zM513.877333 160.426667c35.84 0 70.875429 4.827429 104.009143 14.238476l10.971429 3.291428-18.456381 58.075429a318.976 318.976 0 0 0-96.524191-14.677333c-114.273524 0-212.358095 58.806857-243.98019 140.385523l-2.048 5.60762-57.612191-19.919239c38.278095-110.738286 162.255238-187.001905 303.640381-187.001904zM235.836952 392.118857a30.47619 30.47619 0 0 1 29.988572 3.535238l2.730666 2.29181 150.625524 141.238857a30.47619 30.47619 0 0 1-39.155809 46.616381l-2.56-2.145524-104.277334-97.816381-11.312761 148.894476a30.47619 30.47619 0 0 1-29.574096 28.16l-3.120762-0.073143a30.47619 30.47619 0 0 1-28.16-29.574095l0.073143-3.120762 16.140191-212.211809a30.47619 30.47619 0 0 1 15.481904-24.259048l3.120762-1.536z" fill="#5AC2EE" p-id="1000"></path><path d="M349.696 498.785524l23.893333 56.07619-126.049523 53.662476-23.893334-56.07619zM742.15619 193.121524a133.241905 133.241905 0 0 1 98.304 0.950857 30.47619 30.47619 0 0 1-20.089904 57.465905l-2.925715-1.048381a72.313905 72.313905 0 0 0-53.369904-0.487619c-34.937905 13.482667-51.492571 50.834286-37.766096 83.577904 13.945905 33.304381 54.247619 49.785905 89.795048 36.08381A66.950095 66.950095 0 0 0 851.382857 338.895238l2.048-4.217905a30.47619 30.47619 0 1 1 55.710476 24.722286 127.536762 127.536762 0 0 1-71.070476 67.072c-65.999238 25.478095-141.165714-5.266286-167.984762-69.363809-27.184762-64.78019 5.436952-138.264381 72.045715-164.010667zM432.274286 322.876952a30.47619 30.47619 0 0 1 38.083047 14.799238l1.26781 2.852572 68.705524 180.589714a30.47619 30.47619 0 0 1-55.710477 24.527238l-1.267809-2.852571-68.705524-180.589714a30.47619 30.47619 0 0 1 17.65181-39.326477z" fill="#5AC2EE" p-id="1001"></path><path d="M504.271238 292.205714c36.864-15.652571 78.60419 1.999238 94.841905 38.278096l1.706667 4.12038 1.657904 4.364191c14.06781 36.985905-1.950476 79.238095-36.571428 96.475429l-3.949715 1.828571-72.728381 30.866286-23.82019-56.124953 72.704-30.841904c6.046476-2.584381 9.752381-10.48381 8.167619-17.944381l-0.731429-2.438096-1.657904-4.388571c-2.511238-6.582857-8.387048-9.825524-13.775238-8.704l-1.974858 0.609524-73.069714 31.110095-23.893333-56.076191 73.094095-31.134476z" fill="#5AC2EE" p-id="1002"></path><path d="M538.087619 381.17181c37.059048-15.798857 78.896762 2.681905 95.329524 39.545904l1.731047 4.169143 1.706667 4.412953c14.238476 37.522286-1.29219 80.384-36.083809 97.718857l-3.949715 1.828571-72.752762 30.866286-23.82019-56.076191L572.952381 472.746667c5.924571-2.535619 9.630476-10.947048 7.68-19.236572l-0.75581-2.486857-1.706666-4.388571c-2.779429-7.363048-8.97219-10.947048-14.262857-9.996191l-1.926096 0.609524-23.893333-56.07619zM1054.47619 666.599619v103.424c0 75.849143-60.342857 138.191238-135.338666 141.04381l-5.36381 0.097523H42.057143v-137.752381h60.952381l-0.024381 76.775619 810.739809 0.024381c42.25219 0 77.287619-33.694476 79.652572-75.654095l0.121905-4.534857v-103.424h60.952381z" fill="#5AC2EE" p-id="1003"></path><path d="M1054.47619 761.758476v106.032762c0 74.605714-60.489143 135.631238-135.363047 138.410667l-5.36381 0.097524H42.081524v-128h60.952381l-0.024381 67.047619h810.739809c42.422857 0 77.287619-32.743619 79.652572-73.191619l0.121905-4.388572v-106.008381h60.95238z" fill="#5AC2EE" p-id="1004"></path></svg>